<svg width="18" height="18" viewBox="0 0 18 18" fill="none" xmlns="http://www.w3.org/2000/svg">
<g opacity="0.5">
<path d="M16.9023 16.431L12.034 11.5627C13.0452 10.4399 13.6667 8.95966 13.6667 7.33331C13.6666 3.84116 10.8255 1 7.33334 1C3.84115 1 1 3.84116 1 7.33334C1 10.8255 3.84115 13.6667 7.33334 13.6667C8.95968 13.6667 10.4399 13.0452 11.5627 12.034L16.431 16.9023C16.4961 16.9674 16.5814 17 16.6667 17C16.752 17 16.8372 16.9674 16.9024 16.9023C17.0326 16.7721 17.0326 16.5612 16.9023 16.431ZM7.33334 13C4.209 13 1.66669 10.458 1.66669 7.33334C1.66669 4.20869 4.209 1.66666 7.33334 1.66666C10.4577 1.66666 13 4.20866 13 7.33334C13 10.458 10.4577 13 7.33334 13Z" fill="#343434" stroke="#343434" stroke-width="0.5"/>
</g>
</svg>
